<svg width="23" height="23" viewBox="0 0 23 23" fill="none" xmlns="http://www.w3.org/2000/svg">
<path d="M6.25 22.5C5.836 22.5 5.5 22.164 5.5 21.75C5.5 21.336 5.836 21 6.25 21H16.75C17.164 21 17.5 21.336 17.5 21.75C17.5 22.164 17.164 22.5 16.75 22.5H6.25ZM14.663 10.096L9.555 13.173C9.091 13.452 8.5 13.119 8.5 12.577V6.422C8.5 5.881 9.091 5.547 9.555 5.826L14.663 8.904C15.112 9.174 15.112 9.825 14.663 10.096ZM19.25 17.5C20.492 17.5 21.5 16.492 21.5 15.25V3.75C21.5 2.508 20.492 1.5 19.25 1.5H3.75C2.508 1.5 1.5 2.508 1.5 3.75V15.25C1.5 16.492 2.508 17.5 3.75 17.5H19.25ZM19.25 19H3.75C1.679 19 0 17.321 0 15.25V3.75C0 1.679 1.679 0 3.75 0H19.25C21.321 0 23 1.679 23 3.75V15.25C23 17.321 21.321 19 19.25 19Z" fill="#66676B"/>
</svg>
