<svg width="25" height="23" viewBox="0 0 25 23" fill="none" xmlns="http://www.w3.org/2000/svg">
<path d="M15.7511 21.458H19.5011C19.6371 21.458 19.7511 21.343 19.7511 21.208V11.458C19.7511 10.906 20.2001 10.458 20.7511 10.458H22.5811L12.2681 1.525L1.92309 10.458H3.75109C4.30309 10.458 4.75109 10.906 4.75109 11.458V21.208C4.75109 21.343 4.86609 21.458 5.00109 21.458H8.75109V15.208C8.75109 14.519 9.31209 13.958 10.0011 13.958H14.5011C15.1901 13.958 15.7511 14.519 15.7511 15.208V21.458ZM19.5011 22.958H15.2511C14.6991 22.958 14.2511 22.51 14.2511 21.958V15.806C14.2511 15.614 14.0951 15.458 13.9031 15.458H10.5991C10.4071 15.458 10.2511 15.614 10.2511 15.806V21.958C10.2511 22.51 9.80309 22.958 9.25109 22.958H5.00109C4.03509 22.958 3.25109 22.174 3.25109 21.208V11.958H1.32009C0.818092 11.958 0.330092 11.694 0.119092 11.238C-0.118908 10.724 0.0080924 10.137 0.426092 9.769L11.2521 0.391C11.4991 0.154 11.8591 0.006 12.2401 0C12.6431 0.006 13.0041 0.154 13.2781 0.416L24.0721 9.765C24.0741 9.767 24.0751 9.768 24.0761 9.769C24.4951 10.137 24.6221 10.724 24.3841 11.238C24.1721 11.694 23.6851 11.958 23.1821 11.958H21.2511V21.208C21.2511 22.174 20.4681 22.958 19.5011 22.958Z" fill="#66676B"/>
</svg>
