<svg width="22" height="22" viewBox="0 0 22 22" fill="none" xmlns="http://www.w3.org/2000/svg">
<path d="M20.5 6.5H7.25C7.05109 6.5 6.86032 6.57902 6.71967 6.71967C6.57902 6.86032 6.5 7.05109 6.5 7.25V14.25C6.5 14.664 6.836 15 7.25 15H14V20.5H1.5V1.5H20.5V6.5ZM20.5 20.5H15.5V14.25C15.5 14.0511 15.421 13.8603 15.2803 13.7197C15.1397 13.579 14.9489 13.5 14.75 13.5H8V8H20.5V20.5ZM22 20.75V1.25C22 0.561 21.439 0 20.75 0H1.25C0.561 0 0 0.561 0 1.25V20.75C0 21.439 0.561 22 1.25 22H20.75C21.439 22 22 21.439 22 20.75Z" fill="#66676B"/>
</svg>
